<?xml version="1.0" encoding="UTF-8" standalone="no"?>
<!-- Created with Inkscape (http://www.inkscape.org/) -->

<svg
   width="69.227112mm"
   height="69.298279mm"
   viewBox="0 0 69.227112 69.298279"
   version="1.1"
   id="svg1"
   xmlns:inkscape="http://www.inkscape.org/namespaces/inkscape"
   xmlns:sodipodi="http://sodipodi.sourceforge.net/DTD/sodipodi-0.dtd"
   xmlns="http://www.w3.org/2000/svg"
   xmlns:svg="http://www.w3.org/2000/svg">
  <sodipodi:namedview
     id="namedview1"
     pagecolor="#ffffff"
     bordercolor="#666666"
     borderopacity="1.0"
     inkscape:showpageshadow="2"
     inkscape:pageopacity="0.0"
     inkscape:pagecheckerboard="0"
     inkscape:deskcolor="#d1d1d1"
     inkscape:document-units="mm" />
  <defs
     id="defs1" />
  <g
     inkscape:label="Layer 1"
     inkscape:groupmode="layer"
     id="layer1"
     transform="translate(-62.649213,-49.733435)">
    <path
       id="path108"
       style="fill:#f3766b;stroke-width:0.264583"
       d="m 103.84515,49.733533 c -0.61219,0.0046 -1.23069,0.171627 -1.77044,0.499711 -0.39952,0.243416 -1.70662,1.460294 -3.23856,2.963127 0.4736,-0.362479 0.58742,-0.256481 0.3731,0.30179 -0.0899,0.232833 -0.42056,0.502709 -0.73277,0.595312 -0.31485,0.09525 -0.93376,0.486588 -1.37562,0.870232 -0.10583,0.0926 -0.17198,0.142833 -0.19844,0.156062 -0.62177,0.627063 -1.23317,1.254374 -1.79938,1.841748 0.082,-0.07408 0.15601,-0.142812 0.2248,-0.201021 0.82815,-0.727603 0.85212,-0.732895 0.63252,-0.132292 -0.12436,0.341312 -0.49467,0.756774 -0.82011,0.923458 -0.32543,0.166688 -1.0825,0.762004 -1.6831,1.322917 l -0.81752,0.766878 c -0.17727,0.214312 -0.28315,0.365291 -0.30696,0.434082 -0.0132,0.04233 -0.0262,0.07969 -0.0341,0.119373 -0.12965,0.563565 0.62409,1.328234 14.76603,15.676564 l 0.6165,0.62683 c 7.96395,8.07771 12.90133,12.89579 13.21883,12.89844 0.30162,0 2.41321,-1.89177 5.23896,-4.69635 2.60085,-2.58233 4.96354,-5.06655 5.24929,-5.52163 0.65617,-1.04775 0.6508,-1.86 -0.016,-2.95538 -0.51858,-0.84931 -5.76248,-6.46654 -6.66471,-7.13858 -0.38629,-0.29104 -0.70114,-0.16689 -2.18281,0.84646 -1.87589,1.28587 -2.92651,1.60608 -5.17281,1.58492 -2.80988,-0.0265 -5.43168,-2.03176 -6.57996,-5.03742 -0.98161,-2.56381 -0.58219,-5.214919 1.15083,-7.651729 0.51064,-0.719667 0.93121,-1.413083 0.93121,-1.53479 0,-0.328083 -6.34206,-6.503274 -7.27604,-7.085356 -0.51462,-0.320146 -1.12054,-0.477986 -1.73271,-0.473356 z M 88.1784,64.361064 c -0.0987,0.005 -0.18581,0.0268 -0.2589,0.0672 -0.52652,0.48154 -1.28334,1.19833 -2.20141,2.08204 0.11112,-0.037 0.008,0.16661 -0.20361,0.57671 -0.23283,0.44715 -0.87334,1.0953 -1.42368,1.43661 -0.44714,0.27782 -0.94409,0.58753 -1.23249,0.76481 -0.27781,0.27252 -0.56116,0.55043 -0.84956,0.83354 0.52652,-0.44715 0.61638,-0.43667 0.0925,0.15864 -0.22225,0.254 -0.4865,0.73025 -0.58704,1.05834 -0.11377,0.37041 -0.39186,0.59531 -0.73846,0.59531 -0.25665,0 -0.64566,0.14023 -0.94464,0.33073 -0.75936,0.75141 -1.54215,1.52677 -2.33061,2.30994 l 1.43402,-1.34411 -0.53743,1.08211 c -0.35719,0.72761 -0.88371,1.26177 -1.5875,1.6216 -0.81227,0.41275 -1.08736,0.48711 -0.77515,0.0982 -0.68527,0.68262 -1.36802,1.36543 -2.04535,2.04277 0.58473,-0.47625 0.71973,-0.50279 0.59273,-0.1509 -0.0953,0.26987 -0.28021,0.62706 -0.40721,0.79375 -0.254,0.33073 -1.2145,0.64543 -1.25419,0.42582 -2.0558,2.06374 -4.005851,4.03502 -5.619808,5.68337 0.240771,-0.23813 0.48671,-0.48167 0.732772,-0.72244 2.156352,-2.11136 3.730806,-3.59833 3.497976,-3.30729 -0.23019,0.29104 -0.49754,0.78333 -0.59014,1.09554 -0.0952,0.31221 -0.526359,0.71415 -0.954984,0.89142 -0.907519,0.37571 -2.640665,2.19617 -2.640665,2.77296 0,0.21695 -0.465709,0.68507 -1.034562,1.0449 -1.172103,0.74083 -2.666959,2.24932 -2.669605,2.69647 0,0.16404 -0.179917,0.44692 -0.396875,0.62684 -0.216958,0.17991 -0.396875,0.71702 -0.396875,1.19062 0,0.4736 0.179917,1.01071 0.396875,1.19063 0.216958,0.17991 0.396875,0.49998 0.396875,0.709 0,0.47889 5.831438,6.42951 6.305042,6.43216 0.193145,0.003 0.851772,-0.40738 1.462954,-0.90744 1.26471,-1.03715 2.26773,-1.47908 3.29696,-1.45262 0.58473,0.0132 0.51605,0.0764 -0.40205,0.36484 -0.19844,0.0609 -0.46078,0.17241 -0.75447,0.31264 0.87312,-0.32279 1.7836,-0.42898 3.02979,-0.42633 3.53482,0.0106 5.52727,1.25152 7.07243,4.407996 0.61648,1.25676 0.67951,1.65096 0.57103,3.46335 -0.0688,1.16681 -0.2749,2.15393 -0.65061,3.05615 0.0291,-0.0265 0.0554,-0.0321 0.0739,-0.0109 0.0635,0.0635 -0.18522,0.7568 -0.55035,1.53996 -0.36512,0.78582 -0.66399,1.65901 -0.66663,1.93683 -0.003,0.58472 3.72544,4.47665 5.66219,5.91334 0.73819,0.54504 1.76742,1.03996 2.38125,1.1405 l 0.81752,0.13487 c 0.16669,-0.0503 0.32552,-0.11383 0.48162,-0.19585 0.3175,-0.16669 6.28662,-6.00329 13.26896,-12.96975 6.07483,-6.064236 9.2419,-9.226246 10.84792,-10.948686 -0.0794,0.0397 -0.12454,0.0373 -0.12454,-0.0103 0,-0.15346 0.29633,-0.56096 0.66145,-0.90227 0.36513,-0.34131 0.66146,-0.78594 0.66146,-0.98702 0,-0.20373 -2.35215,-2.73561 -5.22552,-5.63015 -2.87338,-2.89454 -5.60379,-5.65665 -6.06681,-6.13554 -0.46567,-0.48154 -1.29911,-1.30748 -1.85208,-1.834 -0.55563,-0.52917 -1.32827,-1.30439 -1.71721,-1.71979 -0.97367,-1.04775 -2.31792,-2.21434 -2.55075,-2.21434 -0.10848,0 -0.40973,-0.4024 -0.67696,-0.89452 -0.26458,-0.49213 -0.75939,-1.04481 -1.10071,-1.22473 -0.34131,-0.18256 -1.01346,-0.81254 -1.495,-1.39991 -0.48418,-0.58738 -1.1141,-1.25654 -1.4025,-1.48673 -0.83873,-0.67204 -2.82818,-2.74129 -3.95531,-4.11448 -0.7878,-0.96044 -1.82295,-1.68829 -2.53783,-1.85622 -0.11914,-0.028 -0.22945,-0.0408 -0.32815,-0.0362 z m 10.43296,8.92245 c 8.06184,8.04067 18.22179,18.36239 18.72185,19.14819 -0.46037,-0.7567 -10.63884,-11.09429 -18.72185,-19.14819 z m -35.263478,15.69258 c -0.129646,0.14817 -0.214499,0.25381 -0.256832,0.3173 -0.02097,0.0317 -0.03475,0.0687 -0.04651,0.108 -0.0039,0.0131 -0.0078,0.0264 -0.01137,0.0398 v 5.2e-4 c -0.01438,0.0536 -0.0276,0.10841 -0.05064,0.15554 0.01315,-0.0265 0.02686,-0.0531 0.04031,-0.0796 0.09415,-0.18524 0.196395,-0.36813 0.325045,-0.54157 z m -0.365352,0.62115 c -0.01849,0.0378 -0.03653,0.0756 -0.05478,0.11369 0.01782,-0.0382 0.03597,-0.0757 0.05478,-0.11369 z m -0.05478,0.11369 c -0.121325,0.25343 -0.233439,0.51625 -0.278536,0.81804 0.04671,-0.23818 0.126554,-0.47251 0.226859,-0.7028 0.01672,-0.0384 0.03386,-0.0771 0.05168,-0.11524 z m 0.838191,4.03025 c 1.338791,1.50548 4.150942,4.43962 5.373316,5.60379 -1.314978,-1.27529 -4.066275,-4.14065 -5.373316,-5.60379 z m 7.077606,5.65133 c -0.153459,0.10054 -0.299332,0.19345 -0.426332,0.27285 0.134938,-0.0714 0.278165,-0.16437 0.426332,-0.27285 z m 11.40602,11.003976 c -0.001,0.001 -0.002,0.003 -0.004,0.004 -6.7e-4,8.8e-4 -10e-4,0.002 -0.002,0.003 -0.0194,0.0232 -0.0384,0.0463 -0.0574,0.0698 v 5.2e-4 c -0.0207,0.0257 -0.0415,0.0512 -0.0615,0.077 v 5.1e-4 c -0.12047,0.15537 -0.22807,0.31148 -0.31161,0.45011 v 5.1e-4 c -0.0696,0.11545 -0.12253,0.21849 -0.15245,0.29869 v 5.2e-4 c -0.006,0.0159 -0.0114,0.031 -0.0155,0.045 v 5.1e-4 c -0.004,0.0139 -0.007,0.0269 -0.009,0.0388 v 5.2e-4 c -0.002,0.0118 -0.003,0.0229 -0.003,0.0326 v 0.005 c 0.002,-0.0174 0.008,-0.0393 0.0165,-0.0651 v -5.1e-4 c 0.0225,-0.065 0.067,-0.15498 0.12868,-0.262 v -5.2e-4 c 0.0617,-0.10711 0.14102,-0.231 0.23202,-0.36432 v -5.2e-4 c 0.0182,-0.0266 0.0367,-0.0534 0.0558,-0.0806 v -5.2e-4 c 0.0383,-0.0547 0.0788,-0.11027 0.12041,-0.16691 0.0208,-0.0283 0.0416,-0.0567 0.0631,-0.0853 z m 7.68066,8.58036 v 5.1e-4 c 0.003,3.3e-4 0.005,7.2e-4 0.008,10e-4 -0.003,-4.8e-4 -0.005,-10e-4 -0.008,-0.002 z m 0.008,0.002 c 0.37838,0.0704 0.75412,0.0699 1.11414,0.002 l -0.58188,0.0155 c -0.19018,0.008 -0.36773,0.003 -0.53226,-0.017 z" />
  </g>
</svg>
